HIERARCHY
ROOT Hips
{
	OFFSET -0.001795 -0.223333 0.028219
	CHANNELS 6 Xposition Yposition Zposition Zrotation Yrotation Xrotation 
	JOINT LeftUpLeg
	{
		OFFSET 0.069520 -0.091406 -0.006815
		CHANNELS 3 Zrotation Yrotation Xrotation
		JOINT LeftLeg
		{
			OFFSET 0.034277 -0.375199 -0.004496
			CHANNELS 3 Zrotation Yrotation Xrotation
			JOINT LeftFoot
			{
				OFFSET -0.013596 -0.397961 -0.043693
				CHANNELS 3 Zrotation Yrotation Xrotation
				JOINT LeftToe
				{
					OFFSET 0.026358 -0.055791 0.119288
					CHANNELS 3 Zrotation Yrotation Xrotation
					End Site
					{
						OFFSET 0.000000 0.000000 0.000000
					}
				}
			}
		}
	}
	JOINT RightUpLeg
	{
		OFFSET -0.067670 -0.090522 -0.004320
		CHANNELS 3 Zrotation Yrotation Xrotation
		JOINT RightLeg
		{
			OFFSET -0.038290 -0.382569 -0.008850
			CHANNELS 3 Zrotation Yrotation Xrotation
			JOINT RightFoot
			{
				OFFSET 0.015774 -0.398415 -0.042312
				CHANNELS 3 Zrotation Yrotation Xrotation
				JOINT RightToe
				{
					OFFSET -0.025372 -0.048144 0.123348
					CHANNELS 3 Zrotation Yrotation Xrotation
					End Site
					{
						OFFSET 0.000000 0.000000 0.000000
					}
				}
			}
		}
	}
	JOINT Spine
	{
		OFFSET -0.002533 0.108963 -0.026696
		CHANNELS 3 Zrotation Yrotation Xrotation
		JOINT Spine1
		{
			OFFSET 0.005487 0.135180 0.001092
			CHANNELS 3 Zrotation Yrotation Xrotation
			JOINT Spine2
			{
				OFFSET 0.001457 0.052922 0.025425
				CHANNELS 3 Zrotation Yrotation Xrotation
				JOINT Neck
				{
					OFFSET -0.002778 0.213870 -0.042857
					CHANNELS 3 Zrotation Yrotation Xrotation
					JOINT Head
					{
						OFFSET 0.005152 0.064970 0.051349
						CHANNELS 3 Zrotation Yrotation Xrotation
						End Site
						{
							OFFSET 0.000000 0.000000 0.000000
						}
					}
				}
				JOINT LeftShoulder
				{
					OFFSET 0.078845 0.121749 -0.034090
					CHANNELS 3 Zrotation Yrotation Xrotation
					JOINT LeftArm
					{
						OFFSET 0.090977 0.030469 -0.008868
						CHANNELS 3 Zrotation Yrotation Xrotation
						JOINT LeftForeArm
						{
							OFFSET 0.259612 -0.012772 -0.027456
							CHANNELS 3 Zrotation Yrotation Xrotation
							JOINT LeftHand
							{
								OFFSET 0.249234 0.008986 -0.001171
								CHANNELS 3 Zrotation Yrotation Xrotation
								End Site
								{
									OFFSET 0.000000 0.000000 0.000000
								}
							}
						}
					}
				}
				JOINT RightShoulder
				{
					OFFSET -0.081759 0.118833 -0.038615
					CHANNELS 3 Zrotation Yrotation Xrotation
					JOINT RightArm
					{
						OFFSET -0.096012 0.032551 -0.009143
						CHANNELS 3 Zrotation Yrotation Xrotation
						JOINT RightForeArm
						{
							OFFSET -0.253742 -0.013329 -0.021401
							CHANNELS 3 Zrotation Yrotation Xrotation
							JOINT RightHand
							{
								OFFSET -0.255298 0.007772 -0.005559
								CHANNELS 3 Zrotation Yrotation Xrotation
								End Site
								{
									OFFSET 0.000000 0.000000 0.000000
								}
							}
						}
					}
				}
			}
		}
	}
}
MOTION
Frames: 13
Frame Time: 0.050000
0.000000 0.947349 0.000000 -0.735867 -8.260838 6.080713 -0.281837 -0.778248 -8.539418 -0.296530 0.015311 0.844729 -4.710478 -7.769066 4.508190 0.000000 0.000000 0.000000 3.931470 0.567193 -5.800913 -2.295314 0.310569 1.686416 4.354969 7.212295 4.696079 0.000000 0.000000 0.000000 2.818867 -0.286852 3.199393 -3.426300 1.537054 -2.777200 -3.680414 5.935242 7.704682 6.397023 -2.263493 -18.099130 0.000000 0.000000 0.000000 -20.112612 -7.179753 1.535599 -49.342273 -15.946069 0.450962 -4.409944 -33.135085 2.537187 0.000000 0.000000 0.000000 16.949203 0.813066 -0.584317 58.703651 5.928153 -3.080253 10.724990 30.126173 3.974646 0.000000 0.000000 0.000000 
0.004061 0.947624 0.002911 -1.088390 -8.581093 6.932194 1.010847 -0.671844 -8.168785 -1.812761 0.244945 -1.177983 -5.785945 -8.785977 6.623371 0.000000 0.000000 0.000000 3.784860 0.678197 -6.688212 -2.359146 0.317997 1.724691 4.449173 7.603406 4.472051 0.000000 0.000000 0.000000 3.380686 -0.270835 2.362099 -3.119320 1.415170 -2.136745 -4.683203 7.148612 7.004810 7.072755 -2.257286 -19.711892 0.000000 0.000000 0.000000 -20.054844 -7.480233 1.305556 -50.168651 -16.532268 0.875014 -4.999401 -33.662804 2.631600 0.000000 0.000000 0.000000 17.281828 -0.712067 -1.134984 59.186576 6.061839 -2.969529 11.795392 30.427448 4.403869 0.000000 0.000000 0.000000 
0.007983 0.947596 0.004752 -0.918244 -8.863177 7.001021 0.632043 -0.662111 -7.747978 -1.708840 0.236969 -1.360814 -5.621214 -8.546706 6.529645 0.000000 0.000000 0.000000 3.433711 0.732772 -7.135804 -2.016514 0.334288 2.557173 4.005892 6.806519 4.133079 0.000000 0.000000 0.000000 3.982704 -0.265619 1.888783 -3.237653 1.425730 -3.436544 -5.076385 6.839357 7.928836 6.505984 -2.132125 -18.869367 0.000000 0.000000 0.000000 -19.616534 -7.103007 1.315086 -50.166990 -17.748908 1.247514 -6.043293 -33.153400 2.967580 0.000000 0.000000 0.000000 17.000805 -0.404889 -1.047489 59.000455 6.235948 -2.967382 11.770189 32.059578 4.652640 0.000000 0.000000 0.000000 
0.011645 0.946894 0.005638 -0.769383 -9.414697 7.903384 1.004092 -0.691808 -8.444765 -2.434895 0.327710 -1.818610 -6.294191 -9.845415 6.551544 0.000000 0.000000 0.000000 3.053395 0.889967 -8.414949 -1.715557 0.315381 2.811644 3.864392 6.959727 3.501633 0.000000 0.000000 0.000000 3.658999 -0.207135 1.134220 -3.061636 1.338203 -3.576890 -5.300289 6.825914 7.797088 6.564413 -2.123227 -19.328797 0.000000 0.000000 0.000000 -19.640573 -7.170461 1.425155 -50.658130 -19.085242 1.849602 -5.967438 -32.393285 2.902623 0.000000 0.000000 0.000000 16.710489 -1.187499 -1.504127 58.529489 6.649577 -2.718707 14.169246 34.352043 5.752514 0.000000 0.000000 0.000000 
0.014788 0.946788 0.005306 -0.753969 -9.951332 7.990236 0.603248 -0.731470 -8.689528 -2.161217 0.295757 -1.573439 -5.560057 -8.619874 6.308529 0.000000 0.000000 0.000000 2.719744 0.956842 -8.984165 -1.600725 0.328903 3.245187 3.852302 7.165092 3.192450 0.000000 0.000000 0.000000 3.612642 -0.208134 1.171396 -3.053882 1.325728 -3.724494 -5.327158 6.342107 7.752107 6.631150 -2.210641 -19.607444 0.000000 0.000000 0.000000 -19.433705 -7.903520 2.061837 -50.758327 -20.902869 2.597653 -4.264295 -31.513332 2.410245 0.000000 0.000000 0.000000 16.166752 -1.292449 -1.688241 58.472389 7.353209 -2.355034 16.038553 36.846049 6.769283 0.000000 0.000000 0.000000 
0.017441 0.946520 0.004116 -0.909018 -10.098770 8.219172 0.537282 -0.756821 -8.986684 -2.177777 0.298668 -1.627185 -5.405794 -8.495580 5.986525 0.000000 0.000000 0.000000 2.804820 1.059776 -9.736283 -1.628044 0.357184 3.638243 3.991379 7.476579 3.233365 0.000000 0.000000 0.000000 3.593655 -0.209318 1.159086 -2.718746 1.170860 -4.027281 -5.619395 5.739617 7.975624 6.462074 -2.258234 -19.135434 0.000000 0.000000 0.000000 -18.970487 -8.968370 2.855629 -50.942320 -22.948803 3.452497 -2.880977 -31.023760 2.049575 0.000000 0.000000 0.000000 15.885550 -0.808491 -1.550523 57.914586 8.128736 -1.979737 18.195289 39.963051 8.135502 0.000000 0.000000 0.000000 
0.019434 0.946533 0.002702 -1.070058 -10.621662 8.288270 0.537451 -0.766661 -9.160491 -2.052420 0.286321 -1.639955 -5.107059 -7.764893 6.399209 0.000000 0.000000 0.000000 2.924758 1.111073 -10.092643 -1.651859 0.379489 3.942355 4.127423 7.897230 3.109155 0.000000 0.000000 0.000000 3.539646 -0.234823 1.542612 -2.716560 1.163341 -4.082183 -5.663762 5.351742 7.909801 6.616322 -2.382373 -19.413153 0.000000 0.000000 0.000000 -19.049381 -9.470493 3.318595 -50.442321 -24.887979 4.219147 -0.940637 -30.645207 1.547635 0.000000 0.000000 0.000000 15.696476 -0.710266 -1.625520 57.598045 8.643943 -1.714428 20.936580 42.698436 9.751622 0.000000 0.000000 0.000000 
0.020904 0.946441 0.001675 -1.151767 -10.839645 8.346412 0.487068 -0.758300 -9.009093 -1.954527 0.277959 -1.793987 -4.814740 -7.422499 5.980581 0.000000 0.000000 0.000000 3.137376 1.153563 -10.349529 -2.016180 0.419480 3.893722 4.308127 8.657655 2.752746 0.000000 0.000000 0.000000 3.410235 -0.238608 1.670988 -2.618085 1.119937 -4.027952 -5.794760 4.877578 8.029087 6.530868 -2.420615 -19.280911 0.000000 0.000000 0.000000 -18.908648 -10.058119 3.814696 -50.033098 -26.526005 4.834157 0.538389 -30.117779 1.171663 0.000000 0.000000 0.000000 15.875369 -0.392130 -1.599203 56.997547 8.873103 -1.610581 24.069470 44.898213 11.547140 0.000000 0.000000 0.000000 
0.021898 0.946574 0.001055 -1.303514 -11.206177 8.291982 0.512777 -0.746584 -8.894507 -1.761218 0.258134 -1.871146 -4.656028 -7.009080 6.282667 0.000000 0.000000 0.000000 3.303069 1.164174 -10.386586 -2.121793 0.436793 3.967305 4.313705 8.867657 2.520262 0.000000 0.000000 0.000000 3.462039 -0.255655 1.894805 -2.532423 1.087200 -3.784106 -6.128962 4.514753 7.739395 6.410002 -2.426367 -19.048845 0.000000 0.000000 0.000000 -18.927796 -10.263083 4.048421 -49.762282 -27.534463 5.244003 2.123473 -29.492988 0.759784 0.000000 0.000000 0.000000 15.825979 -0.538642 -1.774621 56.939352 7.982462 -2.001839 27.800939 46.850798 13.677650 0.000000 0.000000 0.000000 
0.022578 0.946429 0.000635 -1.344762 -11.310588 8.345160 0.318571 -0.767427 -9.013055 -1.647601 0.245876 -1.904213 -4.570243 -6.864976 6.259519 0.000000 0.000000 0.000000 3.536634 1.172767 -10.394706 -2.369062 0.456138 3.829001 4.092398 8.558897 2.239734 0.000000 0.000000 0.000000 3.433139 -0.275902 2.198832 -2.557234 1.088436 -4.064975 -6.376522 4.365249 8.119836 6.576871 -2.533124 -19.224946 0.000000 0.000000 0.000000 -19.178591 -10.648315 4.349930 -49.248122 -28.796748 5.655225 3.663282 -28.228888 0.363700 0.000000 0.000000 0.000000 16.019921 -0.633380 -1.879868 56.676558 6.857995 -2.564937 30.945532 47.640633 15.352775 0.000000 0.000000 0.000000 
0.023022 0.946469 0.000069 -1.291275 -11.327208 8.499838 0.209058 -0.798125 -9.334498 -1.601808 0.238455 -1.790231 -4.610844 -6.835279 6.503134 0.000000 0.000000 0.000000 3.625198 1.217005 -10.681883 -2.459267 0.481441 4.027365 3.768909 8.079178 1.868018 0.000000 0.000000 0.000000 3.453370 -0.295515 2.444737 -2.453767 1.044858 -4.053454 -6.638139 4.237716 8.163482 6.482168 -2.457971 -19.451088 0.000000 0.000000 0.000000 -19.282773 -10.896812 4.523510 -49.140192 -29.399356 5.891603 4.546463 -26.869561 0.142160 0.000000 0.000000 0.000000 16.111271 -1.112697 -2.154949 56.947549 5.292638 -3.314671 33.712438 47.906061 16.716948 0.000000 0.000000 0.000000 
0.023200 0.946633 -0.000760 -1.314162 -11.116109 8.519485 0.158706 -0.810021 -9.438959 -1.462149 0.221151 -1.759540 -4.817310 -7.106914 6.728811 0.000000 0.000000 0.000000 3.780364 1.243888 -10.815347 -2.487114 0.491959 4.116256 3.568375 7.373603 2.094218 0.000000 0.000000 0.000000 3.443714 -0.315167 2.735098 -2.136284 0.910343 -4.093854 -6.789556 3.954268 8.335822 6.254291 -2.356224 -19.390869 0.000000 0.000000 0.000000 -19.654778 -10.775107 4.525289 -49.265485 -29.513811 5.933470 5.064331 -25.866571 0.031331 0.000000 0.000000 0.000000 16.320812 -1.335190 -2.325144 56.840756 4.318166 -3.778052 33.645610 46.905607 16.241713 0.000000 0.000000 0.000000 
0.022985 0.946887 -0.001718 -1.178808 -10.727934 8.660676 0.182124 -0.826056 -9.653200 -1.593577 0.237150 -1.869232 -5.061392 -7.340367 7.156240 0.000000 0.000000 0.000000 3.673345 1.296972 -11.200160 -2.311806 0.491531 4.395247 3.294873 6.466201 2.368871 0.000000 0.000000 0.000000 3.287027 -0.330264 3.068125 -1.917507 0.815223 -4.375097 -6.863038 3.715356 8.662800 6.048972 -2.236575 -19.513018 0.000000 0.000000 0.000000 -20.102030 -10.688916 4.524808 -49.122543 -29.513386 5.865811 4.890012 -25.113376 0.072610 0.000000 0.000000 0.000000 16.707735 -1.682269 -2.557095 56.696450 3.261605 -4.288437 32.192020 45.763330 15.135469 0.000000 0.000000 0.000000 
